<svg width="95" height="68" fill="none" xmlns="http://www.w3.org/2000/svg"><path d="M59.996 49.776h1.12v11.2h-1.12v-5.232h-6.08v5.232h-1.12v-11.2h1.12v4.912h6.08v-4.912Zm10.219 10.192c-.811.8-1.803 1.2-2.976 1.2-1.174 0-2.171-.4-2.992-1.2-.811-.81-1.216-1.808-1.216-2.992S63.436 54.8 64.247 54c.82-.81 1.818-1.216 2.992-1.216 1.173 0 2.165.405 2.976 1.216.82.8 1.232 1.792 1.232 2.976s-.411 2.181-1.232 2.992Zm-5.216-.736c.608.608 1.354.912 2.24.912.885 0 1.632-.304 2.24-.912.608-.619.912-1.37.912-2.256 0-.885-.304-1.632-.912-2.24-.608-.619-1.355-.928-2.24-.928-.886 0-1.632.31-2.24.928-.608.608-.912 1.355-.912 2.24 0 .885.304 1.637.912 2.256Zm16.743-6.448c.896 0 1.616.288 2.16.864.554.576.832 1.355.832 2.336v4.992h-1.056v-4.992c0-.693-.182-1.227-.544-1.6-.352-.384-.822-.576-1.408-.576-.662 0-1.2.224-1.616.672-.406.437-.608 1.125-.608 2.064v4.432h-1.056v-4.992c0-.704-.17-1.243-.512-1.616-.33-.373-.784-.56-1.36-.56-.64 0-1.184.224-1.632.672-.448.448-.672 1.136-.672 2.064v4.432h-1.056v-8h1.056v1.168c.576-.907 1.392-1.36 2.448-1.36 1.152 0 1.962.485 2.432 1.456.576-.97 1.44-1.456 2.592-1.456Zm8.73 0c1.184 0 2.139.421 2.864 1.264.736.832 1.104 1.819 1.104 2.96 0 .117-.01.283-.032.496h-7.024c.107.81.448 1.456 1.024 1.936.587.47 1.307.704 2.16.704.608 0 1.13-.123 1.568-.368a2.577 2.577 0 0 0 1.008-.992l.928.544a3.8 3.8 0 0 1-1.44 1.344c-.608.33-1.301.496-2.08.496-1.258 0-2.282-.395-3.072-1.184-.79-.79-1.184-1.792-1.184-3.008 0-1.195.39-2.192 1.168-2.992.779-.8 1.782-1.2 3.008-1.2Zm0 1.024c-.832 0-1.53.25-2.096.752-.554.49-.885 1.13-.992 1.92h5.968c-.106-.843-.432-1.499-.976-1.968a2.824 2.824 0 0 0-1.904-.704Z" fill="#000"/><g clip-path="url(#a)"><path d="M38.514 34.676v5.114c0 .87.022 1.74 0 2.61-.06 1.817-1.203 2.941-3.008 2.972-.715.012-1.43.024-2.145-.012a2.767 2.767 0 0 1-2.667-2.607c-.026-.34-.023-.683-.023-1.024V13.294c.004-2.731.958-3.686 3.708-3.686 4.25.026 8.502-.036 12.747.148 3.244.14 6.173 1.313 8.5 3.696 2.552 2.614 3.42 5.83 3.198 9.394-.06.327-.217.627-.453.86a13.776 13.776 0 0 0-3.313 6.766c-.103.47-.362.89-.734 1.194-3.022 2.32-6.555 2.958-10.249 2.994-1.82.016-3.642.016-5.56.016Zm.04-7.021h5.979c.34 0 .681-.015 1.022-.04 3.22-.261 5.38-2.434 5.394-5.425.014-3.12-2.06-5.21-5.437-5.372-2.014-.096-4.03-.067-6.047-.088-.298 0-.595.026-.953.043v10.249c.005.17.029.349.043.623v.01Z" fill="#000"/><path d="M28.132 18.84v1.055c0 7.857-.012 15.714.017 23.572 0 .702-.17 1.062-.868 1.253-2.798.764-5.541 1.81-8.385 2.302-3.42.592-6.59-1.743-7.332-5.138a9.713 9.713 0 0 1 1.669-7.958c.767-1.076 1.907-1.657 3.29-1.85-.64-4.383 1.236-7.728 4.404-10.466 2.011-1.736 4.335-2.827 7.205-2.77Z" fill="#fff"/><path d="M63.605 35.373a5.203 5.203 0 0 0 1.582 3.158 5.187 5.187 0 0 0 3.233 1.416 9.138 9.138 0 0 0 4.433-.754 6.851 6.851 0 0 1 2.762-.497c1.037.024 1.919 1.02 2.114 2.068.196 1.048-.293 1.704-1.1 2.268-5.616 3.923-13.522 2.822-17.431-2.416-4.56-6.112-2.636-17.98 7.865-19.613 5.72-.888 10.08 1.432 12.077 6.532.687 1.755.048 3.104-1.792 3.684-3.46 1.072-6.936 2.094-10.404 3.137l-3.34 1.017Zm8.933-6.821c-.898-1.893-3.008-2.755-5.18-2.199-2.457.63-3.953 2.521-3.78 4.813l8.96-2.614ZM82.825 27.23c-2.443-.402-2.829-.753-2.781-2.827.019-.81.105-1.779.56-2.364.4-.513 1.358-.592 2.221-.922v-3.041c.02-1.61.977-2.602 2.57-2.703 2.884-.181 4.32.526 4.106 3.899-.045.676 0 1.356 0 2.149.98 0 1.869-.012 2.76 0 1.817.026 2.75 1.01 2.744 2.865 0 1.797-.954 2.784-2.717 2.807-.892.015-1.783 0-2.727 0-.024.373-.057.643-.057.915v8.664c0 2.387.677 2.967 3.06 2.714h.093c1.804-.21 2.522.478 2.25 2.3-.34 2.277-1.287 3.416-3.866 3.58a15.7 15.7 0 0 1-3.787-.183c-2.636-.478-4.27-2.588-4.357-5.709-.105-3.63-.053-7.267-.067-10.9-.007-.392-.005-.793-.005-1.245Z" fill="#000"/><path d="M25.432 12.16c-.41 1.13-.682 2.54-1.388 3.684-1.337 2.163-3.775 2.817-6.197 1.867-3.622-1.418-5.696-4.243-6.828-7.836-.689-2.18-.801-4.395.157-6.541C12.426.536 15.078-.548 17.955.569c3.604 1.397 5.639 4.221 6.769 7.769.348 1.134.436 2.356.708 3.822ZM14.77 23.88c.015 1.509-.288 2.93-1.106 4.183-1.399 2.148-3.813 2.905-6.285 1.95-3.56-1.377-5.622-4.14-6.797-7.64a9.783 9.783 0 0 1-.415-5.126c.877-4.297 4.567-6.078 8.375-3.908 4.05 2.295 5.926 5.986 6.228 10.54ZM29.645 7.82c-.019-.055-.071-.124-.054-.167 1.303-3.474 3.422-6.23 7.124-7.244 3.873-1.06 7.012 1.817 6.795 6.15h-9.434c-2.324 0-2.572.072-4.43 1.26Z" fill="#fff"/></g><defs><clipPath id="a"><path fill="#fff" transform="translate(0 .134)" d="M0 0h95v46.978H0z"/></clipPath></defs></svg>