<svg width="107" height="76" fill="none" xmlns="http://www.w3.org/2000/svg"><path d="M67.62 55.4h1.26V68h-1.26v-5.886h-6.84V68h-1.26V55.4h1.26v5.526h6.84V55.4Zm11.496 11.466c-.912.9-2.028 1.35-3.347 1.35-1.32 0-2.443-.45-3.367-1.35-.912-.912-1.368-2.034-1.368-3.366 0-1.332.456-2.448 1.368-3.348.924-.912 2.046-1.368 3.367-1.368 1.32 0 2.435.456 3.347 1.368.924.9 1.386 2.016 1.386 3.348 0 1.332-.462 2.454-1.385 3.366Zm-5.867-.828c.684.684 1.523 1.026 2.52 1.026.995 0 1.835-.342 2.52-1.026.683-.696 1.025-1.542 1.025-2.538 0-.996-.341-1.836-1.025-2.52-.684-.696-1.525-1.044-2.52-1.044-.997 0-1.837.348-2.52 1.044-.684.684-1.026 1.524-1.026 2.52s.341 1.842 1.026 2.538Zm18.836-7.254c1.008 0 1.818.324 2.43.972.623.648.936 1.524.936 2.628V68h-1.188v-5.616c0-.78-.205-1.38-.613-1.8-.396-.432-.924-.648-1.584-.648-.743 0-1.35.252-1.817.756-.456.492-.684 1.266-.684 2.322V68h-1.189v-5.616c0-.792-.192-1.398-.576-1.818-.371-.42-.882-.63-1.53-.63a2.5 2.5 0 0 0-1.835.756c-.505.504-.757 1.278-.757 2.322V68H82.49v-9h1.189v1.314c.647-1.02 1.566-1.53 2.754-1.53 1.295 0 2.207.546 2.735 1.638.648-1.092 1.62-1.638 2.916-1.638Zm9.821 0c1.332 0 2.406.474 3.222 1.422.828.936 1.242 2.046 1.242 3.33 0 .132-.012.318-.036.558h-7.902c.12.912.504 1.638 1.152 2.178.66.528 1.47.792 2.43.792.684 0 1.272-.138 1.764-.414.504-.288.882-.66 1.134-1.116l1.044.612a4.275 4.275 0 0 1-1.62 1.512c-.684.372-1.464.558-2.34.558-1.416 0-2.568-.444-3.456-1.332-.888-.888-1.332-2.016-1.332-3.384 0-1.344.438-2.466 1.314-3.366.876-.9 2.004-1.35 3.384-1.35Zm0 1.152c-.936 0-1.722.282-2.358.846-.624.552-.996 1.272-1.116 2.16h6.714c-.12-.948-.486-1.686-1.098-2.214a3.178 3.178 0 0 0-2.142-.792Z" fill="#000"/><g clip-path="url(#a)"><path d="M43.38 38.905v5.76c0 .979.023 1.96 0 2.939-.068 2.046-1.356 3.313-3.389 3.348-.805.013-1.61.027-2.416-.014a3.107 3.107 0 0 1-3.004-2.936c-.03-.382-.026-.77-.026-1.154V14.822c.005-3.076 1.079-4.152 4.177-4.152 4.786.03 9.575-.04 14.356.167 3.654.159 6.953 1.479 9.573 4.162 2.876 2.945 3.853 6.567 3.603 10.582a1.816 1.816 0 0 1-.51.968 15.514 15.514 0 0 0-3.731 7.62 2.402 2.402 0 0 1-.827 1.345c-3.404 2.614-7.383 3.332-11.544 3.372-2.05.019-4.102.019-6.263.019Zm.045-7.909h6.733c.384 0 .767-.016 1.151-.045 3.627-.293 6.06-2.74 6.076-6.11.016-3.514-2.32-5.867-6.124-6.05-2.268-.108-4.54-.075-6.81-.1-.336 0-.672.03-1.074.049v11.544c.005.19.032.393.048.702v.01Z" fill="#000"/><path d="M31.685 21.069v1.188c0 8.85-.013 17.7.02 26.549 0 .79-.191 1.197-.978 1.412-3.152.86-6.242 2.038-9.444 2.592-3.853.667-7.423-1.963-8.258-5.787a10.94 10.94 0 0 1 1.88-8.962c.864-1.213 2.147-1.867 3.704-2.084-.72-4.937 1.393-8.705 4.961-11.79 2.266-1.954 4.883-3.183 8.115-3.118Z" fill="#FEBF0F"/><path d="M71.64 39.69a5.86 5.86 0 0 0 1.782 3.557 5.841 5.841 0 0 0 3.64 1.595 10.294 10.294 0 0 0 4.993-.85c.988-.399 2.047-.59 3.112-.559 1.167.027 2.16 1.148 2.38 2.329.221 1.18-.33 1.92-1.24 2.554-6.324 4.419-15.229 3.179-19.631-2.72-5.136-6.885-2.97-20.252 8.859-22.091 6.443-1 11.353 1.613 13.602 7.357.773 1.977.054 3.496-2.019 4.15-3.898 1.207-7.812 2.358-11.718 3.533-1.25.379-2.512.766-3.76 1.145ZM81.7 32.008c-1.012-2.133-3.388-3.104-5.833-2.477-2.768.71-4.454 2.84-4.258 5.421L81.7 32.008ZM93.287 30.518c-2.751-.452-3.186-.847-3.132-3.184.021-.912.118-2.003.63-2.662.451-.578 1.53-.667 2.502-1.038v-3.426c.022-1.812 1.101-2.931 2.894-3.044 3.249-.204 4.867.592 4.626 4.391-.051.761 0 1.527 0 2.42 1.103 0 2.104-.013 3.108 0 2.046.03 3.098 1.138 3.09 3.227 0 2.025-1.073 3.135-3.06 3.162-1.004.017-2.008 0-3.071 0-.027.42-.065.724-.065 1.03v9.759c0 2.689.763 3.342 3.447 3.057h.105c2.032-.236 2.84.538 2.534 2.59-.384 2.565-1.449 3.848-4.354 4.033a17.693 17.693 0 0 1-4.266-.207c-2.969-.538-4.808-2.915-4.907-6.43-.118-4.09-.06-8.185-.075-12.277-.008-.441-.006-.893-.006-1.401Z" fill="#000"/><path d="M28.644 13.545c-.462 1.272-.768 2.86-1.562 4.149-1.506 2.436-4.253 3.173-6.98 2.103-4.08-1.598-6.416-4.779-7.691-8.826-.776-2.455-.902-4.95.177-7.368C13.995.452 16.982-.769 20.223.49c4.059 1.574 6.351 4.755 7.624 8.75.392 1.278.49 2.655.797 4.306ZM16.636 26.745c.016 1.7-.325 3.3-1.245 4.711-1.576 2.42-4.296 3.273-7.08 2.197-4.01-1.551-6.332-4.663-7.656-8.605a11.018 11.018 0 0 1-.467-5.773c.988-4.84 5.144-6.846 9.433-4.402 4.561 2.584 6.674 6.741 7.015 11.872ZM33.39 8.656c-.021-.062-.08-.14-.062-.188 1.469-3.913 3.855-7.016 8.024-8.159 4.363-1.194 7.898 2.047 7.654 6.927H38.381c-2.618 0-2.897.08-4.99 1.42Z" fill="#FEBF0F"/></g><defs><clipPath id="a"><path fill="#fff" d="M0 0h107v52.912H0z"/></clipPath></defs></svg>